# Blender v2.91.2 OBJ File: ''
# www.blender.org
o Cone_Cone.001
v 0.000000 0.000000 -0.500000
v 0.500000 0.000000 -0.500000
v 0.497592 -0.049009 -0.500000
v 0.490393 -0.097545 -0.500000
v 0.478470 -0.145142 -0.500000
v 0.461940 -0.191342 -0.500000
v 0.440961 -0.235698 -0.500000
v 0.415735 -0.277785 -0.500000
v 0.386505 -0.317197 -0.500000
v 0.353553 -0.353553 -0.500000
v 0.317197 -0.386505 -0.500000
v 0.277785 -0.415735 -0.500000
v 0.235698 -0.440961 -0.500000
v 0.191342 -0.461940 -0.500000
v 0.145142 -0.478470 -0.500000
v 0.097545 -0.490393 -0.500000
v 0.049009 -0.497592 -0.500000
v -0.000000 -0.500000 -0.500000
v -0.049009 -0.497592 -0.500000
v -0.097545 -0.490393 -0.500000
v -0.145142 -0.478470 -0.500000
v -0.191342 -0.461940 -0.500000
v -0.235699 -0.440961 -0.500000
v -0.277785 -0.415735 -0.500000
v -0.317197 -0.386505 -0.500000
v -0.353554 -0.353553 -0.500000
v -0.386505 -0.317196 -0.500000
v -0.415735 -0.277785 -0.500000
v -0.440961 -0.235698 -0.500000
v -0.461940 -0.191341 -0.500000
v -0.478470 -0.145142 -0.500000
v -0.490393 -0.097545 -0.500000
v -0.497592 -0.049008 -0.500000
v -0.500000 0.000000 -0.500000
v -0.497592 0.049009 -0.500000
v -0.490393 0.097546 -0.500000
v -0.478470 0.145143 -0.500000
v -0.461940 0.191342 -0.500000
v -0.440960 0.235699 -0.500000
v -0.415735 0.277786 -0.500000
v -0.386505 0.317197 -0.500000
v -0.353553 0.353554 -0.500000
v -0.317196 0.386506 -0.500000
v -0.277785 0.415735 -0.500000
v -0.235698 0.440961 -0.500000
v -0.191342 0.461940 -0.500000
v -0.145142 0.478470 -0.500000
v -0.097545 0.490393 -0.500000
v -0.049009 0.497592 -0.500000
v -0.000000 0.500000 -0.500000
v 0.049008 0.497592 -0.500000
v 0.097545 0.490393 -0.500000
v 0.145142 0.478470 -0.500000
v 0.191341 0.461940 -0.500000
v 0.235698 0.440961 -0.500000
v 0.277784 0.415735 -0.500000
v 0.317196 0.386506 -0.500000
v 0.353553 0.353554 -0.500000
v 0.386505 0.317198 -0.500000
v 0.415734 0.277786 -0.500000
v 0.440960 0.235700 -0.500000
v 0.461939 0.191343 -0.500000
v 0.478470 0.145144 -0.500000
v 0.490392 0.097547 -0.500000
v 0.497592 0.049010 -0.500000
v 0.000000 0.000000 0.500000
vn 0.0000 0.0000 -1.0000
vn 0.8936 -0.0439 0.4468
vn 0.8850 -0.1313 0.4468
vn 0.8678 -0.2174 0.4468
vn 0.8423 -0.3014 0.4468
vn 0.8087 -0.3825 0.4468
vn 0.7674 -0.4599 0.4468
vn 0.7186 -0.5329 0.4468
vn 0.6629 -0.6008 0.4468
vn 0.6008 -0.6629 0.4468
vn 0.5329 -0.7186 0.4468
vn 0.4599 -0.7674 0.4468
vn 0.3825 -0.8087 0.4468
vn 0.3014 -0.8423 0.4468
vn 0.2174 -0.8678 0.4468
vn 0.1313 -0.8850 0.4468
vn 0.0439 -0.8936 0.4468
vn -0.0439 -0.8936 0.4468
vn -0.1313 -0.8850 0.4468
vn -0.2174 -0.8678 0.4468
vn -0.3014 -0.8423 0.4468
vn -0.3825 -0.8087 0.4468
vn -0.4599 -0.7674 0.4468
vn -0.5329 -0.7186 0.4468
vn -0.6008 -0.6629 0.4468
vn -0.6629 -0.6008 0.4468
vn -0.7186 -0.5329 0.4468
vn -0.7674 -0.4599 0.4468
vn -0.8087 -0.3825 0.4468
vn -0.8423 -0.3014 0.4468
vn -0.8678 -0.2174 0.4468
vn -0.8850 -0.1313 0.4468
vn -0.8936 -0.0439 0.4468
vn -0.8936 0.0439 0.4468
vn -0.8850 0.1313 0.4468
vn -0.8678 0.2174 0.4468
vn -0.8423 0.3014 0.4468
vn -0.8087 0.3825 0.4468
vn -0.7674 0.4599 0.4468
vn -0.7186 0.5329 0.4468
vn -0.6629 0.6008 0.4468
vn -0.6008 0.6629 0.4468
vn -0.5329 0.7186 0.4468
vn -0.4599 0.7674 0.4468
vn -0.3825 0.8087 0.4468
vn -0.3014 0.8423 0.4468
vn -0.2174 0.8678 0.4468
vn -0.1313 0.8850 0.4468
vn -0.0439 0.8936 0.4468
vn 0.0439 0.8936 0.4468
vn 0.1313 0.8850 0.4468
vn 0.2174 0.8678 0.4468
vn 0.3014 0.8423 0.4468
vn 0.3825 0.8087 0.4468
vn 0.4599 0.7674 0.4468
vn 0.5329 0.7186 0.4468
vn 0.6008 0.6629 0.4468
vn 0.6629 0.6008 0.4468
vn 0.7186 0.5329 0.4468
vn 0.7674 0.4599 0.4468
vn 0.8087 0.3825 0.4468
vn 0.8423 0.3014 0.4468
vn 0.8678 0.2174 0.4468
vn 0.8850 0.1313 0.4468
vn 0.8936 0.0439 0.4468
s off
f 1//1 2//1 3//1
f 2//2 66//2 3//2
f 1//1 3//1 4//1
f 3//3 66//3 4//3
f 1//1 4//1 5//1
f 4//4 66//4 5//4
f 1//1 5//1 6//1
f 5//5 66//5 6//5
f 1//1 6//1 7//1
f 6//6 66//6 7//6
f 1//1 7//1 8//1
f 7//7 66//7 8//7
f 1//1 8//1 9//1
f 8//8 66//8 9//8
f 1//1 9//1 10//1
f 9//9 66//9 10//9
f 1//1 10//1 11//1
f 10//10 66//10 11//10
f 1//1 11//1 12//1
f 11//11 66//11 12//11
f 1//1 12//1 13//1
f 12//12 66//12 13//12
f 1//1 13//1 14//1
f 13//13 66//13 14//13
f 1//1 14//1 15//1
f 14//14 66//14 15//14
f 1//1 15//1 16//1
f 15//15 66//15 16//15
f 1//1 16//1 17//1
f 16//16 66//16 17//16
f 1//1 17//1 18//1
f 17//17 66//17 18//17
f 1//1 18//1 19//1
f 18//18 66//18 19//18
f 1//1 19//1 20//1
f 19//19 66//19 20//19
f 1//1 20//1 21//1
f 20//20 66//20 21//20
f 1//1 21//1 22//1
f 21//21 66//21 22//21
f 1//1 22//1 23//1
f 22//22 66//22 23//22
f 1//1 23//1 24//1
f 23//23 66//23 24//23
f 1//1 24//1 25//1
f 24//24 66//24 25//24
f 1//1 25//1 26//1
f 25//25 66//25 26//25
f 1//1 26//1 27//1
f 26//26 66//26 27//26
f 1//1 27//1 28//1
f 27//27 66//27 28//27
f 1//1 28//1 29//1
f 28//28 66//28 29//28
f 1//1 29//1 30//1
f 29//29 66//29 30//29
f 1//1 30//1 31//1
f 30//30 66//30 31//30
f 1//1 31//1 32//1
f 31//31 66//31 32//31
f 1//1 32//1 33//1
f 32//32 66//32 33//32
f 1//1 33//1 34//1
f 33//33 66//33 34//33
f 1//1 34//1 35//1
f 34//34 66//34 35//34
f 1//1 35//1 36//1
f 35//35 66//35 36//35
f 1//1 36//1 37//1
f 36//36 66//36 37//36
f 1//1 37//1 38//1
f 37//37 66//37 38//37
f 1//1 38//1 39//1
f 38//38 66//38 39//38
f 1//1 39//1 40//1
f 39//39 66//39 40//39
f 1//1 40//1 41//1
f 40//40 66//40 41//40
f 1//1 41//1 42//1
f 41//41 66//41 42//41
f 1//1 42//1 43//1
f 42//42 66//42 43//42
f 1//1 43//1 44//1
f 43//43 66//43 44//43
f 1//1 44//1 45//1
f 44//44 66//44 45//44
f 1//1 45//1 46//1
f 45//45 66//45 46//45
f 1//1 46//1 47//1
f 46//46 66//46 47//46
f 1//1 47//1 48//1
f 47//47 66//47 48//47
f 1//1 48//1 49//1
f 48//48 66//48 49//48
f 1//1 49//1 50//1
f 49//49 66//49 50//49
f 1//1 50//1 51//1
f 50//50 66//50 51//50
f 1//1 51//1 52//1
f 51//51 66//51 52//51
f 1//1 52//1 53//1
f 52//52 66//52 53//52
f 1//1 53//1 54//1
f 53//53 66//53 54//53
f 1//1 54//1 55//1
f 54//54 66//54 55//54
f 1//1 55//1 56//1
f 55//55 66//55 56//55
f 1//1 56//1 57//1
f 56//56 66//56 57//56
f 1//1 57//1 58//1
f 57//57 66//57 58//57
f 1//1 58//1 59//1
f 58//58 66//58 59//58
f 1//1 59//1 60//1
f 59//59 66//59 60//59
f 1//1 60//1 61//1
f 60//60 66//60 61//60
f 1//1 61//1 62//1
f 61//61 66//61 62//61
f 1//1 62//1 63//1
f 62//62 66//62 63//62
f 1//1 63//1 64//1
f 63//63 66//63 64//63
f 1//1 64//1 65//1
f 64//64 66//64 65//64
f 1//1 65//1 2//1
f 65//65 66//65 2//65
