# Blender v2.91.2 OBJ File: ''
# www.blender.org
o Cylinder
v 0.000000 0.000000 -0.500000
v 0.000000 0.000000 0.500000
v 0.500000 0.000000 -0.500000
v 0.500000 0.000000 0.500000
v 0.497592 -0.049009 -0.500000
v 0.497592 -0.049009 0.500000
v 0.490393 -0.097545 -0.500000
v 0.490393 -0.097545 0.500000
v 0.478470 -0.145142 -0.500000
v 0.478470 -0.145142 0.500000
v 0.461940 -0.191342 -0.500000
v 0.461940 -0.191342 0.500000
v 0.440961 -0.235698 -0.500000
v 0.440961 -0.235698 0.500000
v 0.415735 -0.277785 -0.500000
v 0.415735 -0.277785 0.500000
v 0.386505 -0.317197 -0.500000
v 0.386505 -0.317197 0.500000
v 0.353553 -0.353553 -0.500000
v 0.353553 -0.353553 0.500000
v 0.317197 -0.386505 -0.500000
v 0.317197 -0.386505 0.500000
v 0.277785 -0.415735 -0.500000
v 0.277785 -0.415735 0.500000
v 0.235698 -0.440961 -0.500000
v 0.235698 -0.440961 0.500000
v 0.191342 -0.461940 -0.500000
v 0.191342 -0.461940 0.500000
v 0.145142 -0.478470 -0.500000
v 0.145142 -0.478470 0.500000
v 0.097545 -0.490393 -0.500000
v 0.097545 -0.490393 0.500000
v 0.049009 -0.497592 -0.500000
v 0.049009 -0.497592 0.500000
v -0.000000 -0.500000 -0.500000
v -0.000000 -0.500000 0.500000
v -0.049009 -0.497592 -0.500000
v -0.049009 -0.497592 0.500000
v -0.097545 -0.490393 -0.500000
v -0.097545 -0.490393 0.500000
v -0.145142 -0.478470 -0.500000
v -0.145142 -0.478470 0.500000
v -0.191342 -0.461940 -0.500000
v -0.191342 -0.461940 0.500000
v -0.235699 -0.440961 -0.500000
v -0.235699 -0.440961 0.500000
v -0.277785 -0.415735 -0.500000
v -0.277785 -0.415735 0.500000
v -0.317197 -0.386505 -0.500000
v -0.317197 -0.386505 0.500000
v -0.353554 -0.353553 -0.500000
v -0.353554 -0.353553 0.500000
v -0.386505 -0.317196 -0.500000
v -0.386505 -0.317196 0.500000
v -0.415735 -0.277785 -0.500000
v -0.415735 -0.277785 0.500000
v -0.440961 -0.235698 -0.500000
v -0.440961 -0.235698 0.500000
v -0.461940 -0.191341 -0.500000
v -0.461940 -0.191341 0.500000
v -0.478470 -0.145142 -0.500000
v -0.478470 -0.145142 0.500000
v -0.490393 -0.097545 -0.500000
v -0.490393 -0.097545 0.500000
v -0.497592 -0.049008 -0.500000
v -0.497592 -0.049008 0.500000
v -0.500000 0.000000 -0.500000
v -0.500000 0.000000 0.500000
v -0.497592 0.049009 -0.500000
v -0.497592 0.049009 0.500000
v -0.490393 0.097546 -0.500000
v -0.490393 0.097546 0.500000
v -0.478470 0.145143 -0.500000
v -0.478470 0.145143 0.500000
v -0.461940 0.191342 -0.500000
v -0.461940 0.191342 0.500000
v -0.440960 0.235699 -0.500000
v -0.440960 0.235699 0.500000
v -0.415735 0.277786 -0.500000
v -0.415735 0.277786 0.500000
v -0.386505 0.317197 -0.500000
v -0.386505 0.317197 0.500000
v -0.353553 0.353554 -0.500000
v -0.353553 0.353554 0.500000
v -0.317196 0.386506 -0.500000
v -0.317196 0.386506 0.500000
v -0.277785 0.415735 -0.500000
v -0.277785 0.415735 0.500000
v -0.235698 0.440961 -0.500000
v -0.235698 0.440961 0.500000
v -0.191342 0.461940 -0.500000
v -0.191342 0.461940 0.500000
v -0.145142 0.478470 -0.500000
v -0.145142 0.478470 0.500000
v -0.097545 0.490393 -0.500000
v -0.097545 0.490393 0.500000
v -0.049009 0.497592 -0.500000
v -0.049009 0.497592 0.500000
v -0.000000 0.500000 -0.500000
v -0.000000 0.500000 0.500000
v 0.049008 0.497592 -0.500000
v 0.049008 0.497592 0.500000
v 0.097545 0.490393 -0.500000
v 0.097545 0.490393 0.500000
v 0.145142 0.478470 -0.500000
v 0.145142 0.478470 0.500000
v 0.191341 0.461940 -0.500000
v 0.191341 0.461940 0.500000
v 0.235698 0.440961 -0.500000
v 0.235698 0.440961 0.500000
v 0.277784 0.415735 -0.500000
v 0.277784 0.415735 0.500000
v 0.317196 0.386506 -0.500000
v 0.317196 0.386506 0.500000
v 0.353553 0.353554 -0.500000
v 0.353553 0.353554 0.500000
v 0.386505 0.317198 -0.500000
v 0.386505 0.317198 0.500000
v 0.415734 0.277786 -0.500000
v 0.415734 0.277786 0.500000
v 0.440960 0.235700 -0.500000
v 0.440960 0.235700 0.500000
v 0.461939 0.191343 -0.500000
v 0.461939 0.191343 0.500000
v 0.478470 0.145144 -0.500000
v 0.478470 0.145144 0.500000
v 0.490392 0.097547 -0.500000
v 0.490392 0.097547 0.500000
v 0.497592 0.049010 -0.500000
v 0.497592 0.049010 0.500000
vn 0.0000 0.0000 -1.0000
vn 0.0000 0.0000 1.0000
vn 0.9988 -0.0491 0.0000
vn 0.9892 -0.1467 0.0000
vn 0.9700 -0.2430 0.0000
vn 0.9415 -0.3369 0.0000
vn 0.9040 -0.4276 0.0000
vn 0.8577 -0.5141 0.0000
vn 0.8032 -0.5957 0.0000
vn 0.7410 -0.6716 0.0000
vn 0.6716 -0.7410 0.0000
vn 0.5957 -0.8032 0.0000
vn 0.5141 -0.8577 0.0000
vn 0.4276 -0.9040 0.0000
vn 0.3369 -0.9415 0.0000
vn 0.2430 -0.9700 0.0000
vn 0.1467 -0.9892 0.0000
vn 0.0491 -0.9988 0.0000
vn -0.0491 -0.9988 0.0000
vn -0.1467 -0.9892 0.0000
vn -0.2430 -0.9700 0.0000
vn -0.3369 -0.9415 0.0000
vn -0.4276 -0.9040 0.0000
vn -0.5141 -0.8577 0.0000
vn -0.5957 -0.8032 0.0000
vn -0.6716 -0.7410 0.0000
vn -0.7410 -0.6716 0.0000
vn -0.8032 -0.5957 0.0000
vn -0.8577 -0.5141 0.0000
vn -0.9040 -0.4276 0.0000
vn -0.9415 -0.3369 0.0000
vn -0.9700 -0.2430 0.0000
vn -0.9892 -0.1467 0.0000
vn -0.9988 -0.0491 0.0000
vn -0.9988 0.0491 0.0000
vn -0.9892 0.1467 0.0000
vn -0.9700 0.2430 0.0000
vn -0.9415 0.3369 0.0000
vn -0.9040 0.4276 0.0000
vn -0.8577 0.5141 0.0000
vn -0.8032 0.5957 0.0000
vn -0.7410 0.6716 0.0000
vn -0.6716 0.7410 0.0000
vn -0.5957 0.8032 0.0000
vn -0.5141 0.8577 0.0000
vn -0.4276 0.9040 0.0000
vn -0.3369 0.9415 0.0000
vn -0.2430 0.9700 0.0000
vn -0.1467 0.9892 0.0000
vn -0.0491 0.9988 0.0000
vn 0.0491 0.9988 0.0000
vn 0.1467 0.9892 0.0000
vn 0.2430 0.9700 0.0000
vn 0.3369 0.9415 0.0000
vn 0.4276 0.9040 0.0000
vn 0.5141 0.8577 0.0000
vn 0.5957 0.8032 0.0000
vn 0.6716 0.7410 0.0000
vn 0.7410 0.6716 0.0000
vn 0.8032 0.5957 0.0000
vn 0.8577 0.5141 0.0000
vn 0.9040 0.4276 0.0000
vn 0.9415 0.3369 0.0000
vn 0.9700 0.2430 0.0000
vn 0.9892 0.1467 0.0000
vn 0.9988 0.0491 0.0000
s off
f 1//1 3//1 5//1
f 2//2 6//2 4//2
f 3//3 4//3 6//3 5//3
f 1//1 5//1 7//1
f 2//2 8//2 6//2
f 5//4 6//4 8//4 7//4
f 1//1 7//1 9//1
f 2//2 10//2 8//2
f 7//5 8//5 10//5 9//5
f 1//1 9//1 11//1
f 2//2 12//2 10//2
f 9//6 10//6 12//6 11//6
f 1//1 11//1 13//1
f 2//2 14//2 12//2
f 11//7 12//7 14//7 13//7
f 1//1 13//1 15//1
f 2//2 16//2 14//2
f 13//8 14//8 16//8 15//8
f 1//1 15//1 17//1
f 2//2 18//2 16//2
f 15//9 16//9 18//9 17//9
f 1//1 17//1 19//1
f 2//2 20//2 18//2
f 17//10 18//10 20//10 19//10
f 1//1 19//1 21//1
f 2//2 22//2 20//2
f 19//11 20//11 22//11 21//11
f 1//1 21//1 23//1
f 2//2 24//2 22//2
f 21//12 22//12 24//12 23//12
f 1//1 23//1 25//1
f 2//2 26//2 24//2
f 23//13 24//13 26//13 25//13
f 1//1 25//1 27//1
f 2//2 28//2 26//2
f 25//14 26//14 28//14 27//14
f 1//1 27//1 29//1
f 2//2 30//2 28//2
f 27//15 28//15 30//15 29//15
f 1//1 29//1 31//1
f 2//2 32//2 30//2
f 29//16 30//16 32//16 31//16
f 1//1 31//1 33//1
f 2//2 34//2 32//2
f 31//17 32//17 34//17 33//17
f 1//1 33//1 35//1
f 2//2 36//2 34//2
f 33//18 34//18 36//18 35//18
f 1//1 35//1 37//1
f 2//2 38//2 36//2
f 35//19 36//19 38//19 37//19
f 1//1 37//1 39//1
f 2//2 40//2 38//2
f 37//20 38//20 40//20 39//20
f 1//1 39//1 41//1
f 2//2 42//2 40//2
f 39//21 40//21 42//21 41//21
f 1//1 41//1 43//1
f 2//2 44//2 42//2
f 41//22 42//22 44//22 43//22
f 1//1 43//1 45//1
f 2//2 46//2 44//2
f 43//23 44//23 46//23 45//23
f 1//1 45//1 47//1
f 2//2 48//2 46//2
f 45//24 46//24 48//24 47//24
f 1//1 47//1 49//1
f 2//2 50//2 48//2
f 47//25 48//25 50//25 49//25
f 1//1 49//1 51//1
f 2//2 52//2 50//2
f 49//26 50//26 52//26 51//26
f 1//1 51//1 53//1
f 2//2 54//2 52//2
f 51//27 52//27 54//27 53//27
f 1//1 53//1 55//1
f 2//2 56//2 54//2
f 53//28 54//28 56//28 55//28
f 1//1 55//1 57//1
f 2//2 58//2 56//2
f 55//29 56//29 58//29 57//29
f 1//1 57//1 59//1
f 2//2 60//2 58//2
f 57//30 58//30 60//30 59//30
f 1//1 59//1 61//1
f 2//2 62//2 60//2
f 59//31 60//31 62//31 61//31
f 1//1 61//1 63//1
f 2//2 64//2 62//2
f 61//32 62//32 64//32 63//32
f 1//1 63//1 65//1
f 2//2 66//2 64//2
f 63//33 64//33 66//33 65//33
f 1//1 65//1 67//1
f 2//2 68//2 66//2
f 65//34 66//34 68//34 67//34
f 1//1 67//1 69//1
f 2//2 70//2 68//2
f 67//35 68//35 70//35 69//35
f 1//1 69//1 71//1
f 2//2 72//2 70//2
f 69//36 70//36 72//36 71//36
f 1//1 71//1 73//1
f 2//2 74//2 72//2
f 71//37 72//37 74//37 73//37
f 1//1 73//1 75//1
f 2//2 76//2 74//2
f 73//38 74//38 76//38 75//38
f 1//1 75//1 77//1
f 2//2 78//2 76//2
f 75//39 76//39 78//39 77//39
f 1//1 77//1 79//1
f 2//2 80//2 78//2
f 77//40 78//40 80//40 79//40
f 1//1 79//1 81//1
f 2//2 82//2 80//2
f 79//41 80//41 82//41 81//41
f 1//1 81//1 83//1
f 2//2 84//2 82//2
f 81//42 82//42 84//42 83//42
f 1//1 83//1 85//1
f 2//2 86//2 84//2
f 83//43 84//43 86//43 85//43
f 1//1 85//1 87//1
f 2//2 88//2 86//2
f 85//44 86//44 88//44 87//44
f 1//1 87//1 89//1
f 2//2 90//2 88//2
f 87//45 88//45 90//45 89//45
f 1//1 89//1 91//1
f 2//2 92//2 90//2
f 89//46 90//46 92//46 91//46
f 1//1 91//1 93//1
f 2//2 94//2 92//2
f 91//47 92//47 94//47 93//47
f 1//1 93//1 95//1
f 2//2 96//2 94//2
f 93//48 94//48 96//48 95//48
f 1//1 95//1 97//1
f 2//2 98//2 96//2
f 95//49 96//49 98//49 97//49
f 1//1 97//1 99//1
f 2//2 100//2 98//2
f 97//50 98//50 100//50 99//50
f 1//1 99//1 101//1
f 2//2 102//2 100//2
f 99//51 100//51 102//51 101//51
f 1//1 101//1 103//1
f 2//2 104//2 102//2
f 101//52 102//52 104//52 103//52
f 1//1 103//1 105//1
f 2//2 106//2 104//2
f 103//53 104//53 106//53 105//53
f 1//1 105//1 107//1
f 2//2 108//2 106//2
f 105//54 106//54 108//54 107//54
f 1//1 107//1 109//1
f 2//2 110//2 108//2
f 107//55 108//55 110//55 109//55
f 1//1 109//1 111//1
f 2//2 112//2 110//2
f 109//56 110//56 112//56 111//56
f 1//1 111//1 113//1
f 2//2 114//2 112//2
f 111//57 112//57 114//57 113//57
f 1//1 113//1 115//1
f 2//2 116//2 114//2
f 113//58 114//58 116//58 115//58
f 1//1 115//1 117//1
f 2//2 118//2 116//2
f 115//59 116//59 118//59 117//59
f 1//1 117//1 119//1
f 2//2 120//2 118//2
f 117//60 118//60 120//60 119//60
f 1//1 119//1 121//1
f 2//2 122//2 120//2
f 119//61 120//61 122//61 121//61
f 1//1 121//1 123//1
f 2//2 124//2 122//2
f 121//62 122//62 124//62 123//62
f 1//1 123//1 125//1
f 2//2 126//2 124//2
f 123//63 124//63 126//63 125//63
f 1//1 125//1 127//1
f 2//2 128//2 126//2
f 125//64 126//64 128//64 127//64
f 1//1 127//1 129//1
f 2//2 130//2 128//2
f 127//65 128//65 130//65 129//65
f 1//1 129//1 3//1
f 2//2 4//2 130//2
f 129//66 130//66 4//66 3//66
